<mxfile host="app.diagrams.net" modified="2023-04-11T15:59:04.674Z" agent="Mozilla/5.0 (Macintosh; Intel Mac OS X 10_15_7) AppleWebKit/537.36 (KHTML, like Gecko) Chrome/111.0.0.0 Safari/537.36" etag="fx434mmxNeaCwU7_su62" version="21.1.5" type="github">
  <diagram name="第 1 页" id="H3CMlwZU-cl_UXKuKH6x">
    <mxGraphModel dx="714" dy="1833" grid="1" gridSize="10" guides="1" tooltips="1" connect="1" arrows="1" fold="1" page="1" pageScale="1" pageWidth="827" pageHeight="1169" math="0" shadow="0">
      <root>
        <mxCell id="0" />
        <mxCell id="1" parent="0" />
        <mxCell id="Wea24mqp46YHUJu7_DDa-1" value="各發兩張牌" style="rounded=1;whiteSpace=wrap;html=1;" parent="1" vertex="1">
          <mxGeometry x="600" y="130" width="120" height="60" as="geometry" />
        </mxCell>
        <mxCell id="-YaQHlZGOZr2escpXnsC-1" value="發莊家牌" style="rounded=1;whiteSpace=wrap;html=1;" parent="1" vertex="1">
          <mxGeometry x="510" y="330" width="120" height="100" as="geometry" />
        </mxCell>
        <mxCell id="-YaQHlZGOZr2escpXnsC-9" value="go over 21?" style="rhombus;whiteSpace=wrap;html=1;" parent="1" vertex="1">
          <mxGeometry x="595" y="470" width="130" height="80" as="geometry" />
        </mxCell>
        <mxCell id="-YaQHlZGOZr2escpXnsC-10" value="閒家是否還要牌" style="rhombus;whiteSpace=wrap;html=1;" parent="1" vertex="1">
          <mxGeometry x="577.5" y="220" width="165" height="80" as="geometry" />
        </mxCell>
        <mxCell id="-YaQHlZGOZr2escpXnsC-11" value="" style="rounded=1;whiteSpace=wrap;html=1;" parent="1" vertex="1">
          <mxGeometry x="690" y="330" width="120" height="100" as="geometry" />
        </mxCell>
        <mxCell id="JIpIYWrOA53nef6WXoMH-3" value="" style="rounded=1;whiteSpace=wrap;html=1;" parent="1" vertex="1">
          <mxGeometry x="80" y="520" width="120" height="60" as="geometry" />
        </mxCell>
        <mxCell id="n0fAw1ujt4TE3q4Yoebz-1" value="calculate score" style="rounded=1;whiteSpace=wrap;html=1;" parent="1" vertex="1">
          <mxGeometry x="600" y="570" width="120" height="60" as="geometry" />
        </mxCell>
        <mxCell id="n0fAw1ujt4TE3q4Yoebz-3" value="new game?" style="rounded=1;whiteSpace=wrap;html=1;" parent="1" vertex="1">
          <mxGeometry x="600" y="750" width="120" height="60" as="geometry" />
        </mxCell>
        <mxCell id="n0fAw1ujt4TE3q4Yoebz-4" value="compare score and print out final hand and score" style="rounded=1;whiteSpace=wrap;html=1;" parent="1" vertex="1">
          <mxGeometry x="600" y="660" width="120" height="60" as="geometry" />
        </mxCell>
        <mxCell id="n0fAw1ujt4TE3q4Yoebz-5" value="Welcome msg and logo" style="rounded=1;whiteSpace=wrap;html=1;" parent="1" vertex="1">
          <mxGeometry x="600" y="30" width="120" height="60" as="geometry" />
        </mxCell>
        <mxCell id="n0fAw1ujt4TE3q4Yoebz-6" value="要" style="endArrow=classic;html=1;rounded=0;entryX=0.442;entryY=-0.033;entryDx=0;entryDy=0;exitX=1;exitY=0.5;exitDx=0;exitDy=0;entryPerimeter=0;" parent="1" source="-YaQHlZGOZr2escpXnsC-10" target="-YaQHlZGOZr2escpXnsC-11" edge="1">
          <mxGeometry width="50" height="50" relative="1" as="geometry">
            <mxPoint x="720" y="520" as="sourcePoint" />
            <mxPoint x="770" y="470" as="targetPoint" />
          </mxGeometry>
        </mxCell>
        <mxCell id="n0fAw1ujt4TE3q4Yoebz-7" value="不要" style="endArrow=classic;html=1;rounded=0;exitX=0;exitY=0.5;exitDx=0;exitDy=0;entryX=0.558;entryY=-0.033;entryDx=0;entryDy=0;entryPerimeter=0;" parent="1" source="-YaQHlZGOZr2escpXnsC-10" target="-YaQHlZGOZr2escpXnsC-1" edge="1">
          <mxGeometry width="50" height="50" relative="1" as="geometry">
            <mxPoint x="720" y="520" as="sourcePoint" />
            <mxPoint x="770" y="470" as="targetPoint" />
          </mxGeometry>
        </mxCell>
        <mxCell id="n0fAw1ujt4TE3q4Yoebz-8" value="" style="rhombus;whiteSpace=wrap;html=1;" parent="1" vertex="1">
          <mxGeometry x="1100" y="480" width="130" height="80" as="geometry" />
        </mxCell>
        <mxCell id="n0fAw1ujt4TE3q4Yoebz-10" value="" style="rhombus;whiteSpace=wrap;html=1;" parent="1" vertex="1">
          <mxGeometry x="900" y="-110" width="130" height="80" as="geometry" />
        </mxCell>
        <mxCell id="n0fAw1ujt4TE3q4Yoebz-12" value="" style="endArrow=classic;html=1;rounded=0;exitX=0.575;exitY=1.025;exitDx=0;exitDy=0;exitPerimeter=0;entryX=0;entryY=0;entryDx=0;entryDy=0;" parent="1" source="-YaQHlZGOZr2escpXnsC-1" target="-YaQHlZGOZr2escpXnsC-9" edge="1">
          <mxGeometry width="50" height="50" relative="1" as="geometry">
            <mxPoint x="720" y="630" as="sourcePoint" />
            <mxPoint x="770" y="580" as="targetPoint" />
          </mxGeometry>
        </mxCell>
        <mxCell id="n0fAw1ujt4TE3q4Yoebz-13" value="" style="endArrow=classic;html=1;rounded=0;entryX=1;entryY=0;entryDx=0;entryDy=0;" parent="1" target="-YaQHlZGOZr2escpXnsC-9" edge="1">
          <mxGeometry width="50" height="50" relative="1" as="geometry">
            <mxPoint x="740" y="430" as="sourcePoint" />
            <mxPoint x="770" y="580" as="targetPoint" />
          </mxGeometry>
        </mxCell>
        <mxCell id="n0fAw1ujt4TE3q4Yoebz-14" value="Game Over" style="rounded=1;whiteSpace=wrap;html=1;" parent="1" vertex="1">
          <mxGeometry x="600" y="850" width="120" height="60" as="geometry" />
        </mxCell>
      </root>
    </mxGraphModel>
  </diagram>
</mxfile>
